<svg xmlns="http://www.w3.org/2000/svg" xmlns:xlink="http://www.w3.org/1999/xlink"><symbol id="icon-arrow" viewBox="0 0 48 48"><path d="m24 30.75-12-12 2.15-2.15L24 26.5l9.85-9.85L36 18.8Z"/></symbol><symbol id="icon-close" viewBox="0 0 24 24"><g fill="none" stroke="currentColor" stroke-linecap="round" stroke-linejoin="round" stroke-width="2"><path d="M18 6 6 18M6 6l12 12"/></g></symbol><symbol id="icon-delete-done" viewBox="0 0 24 24"><path fill="currentColor" d="M4.14 2.69a.996.996 0 0 0 0 1.41l9.67 9.67-1.41 1.41-3.54-3.53a.996.996 0 1 0-1.41 1.41l4.24 4.24c.39.39 1.02.39 1.41 0l2.12-2.12 5.89 5.89a.996.996 0 1 0 1.41-1.41L5.55 2.69a.996.996 0 0 0-1.41 0zm13.91 9.67 4.24-4.24a.999.999 0 0 0-.01-1.42c-.39-.38-1.02-.38-1.41.01l-4.24 4.24 1.42 1.41zM16.64 6.7a.996.996 0 0 0-1.41 0l-1.42 1.42 1.41 1.41 1.42-1.42a.996.996 0 0 0 0-1.41zM1.79 13.06l4.95 4.95 1.41-1.41-4.95-4.95a.996.996 0 1 0-1.41 1.41z"/></symbol><symbol id="icon-delete" viewBox="0 0 24 24"><g fill="none" stroke="currentColor" stroke-linecap="round" stroke-linejoin="round" stroke-width="2"><path d="M3 6h18M19 6v14a2 2 0 0 1-2 2H7a2 2 0 0 1-2-2V6m3 0V4a2 2 0 0 1 2-2h4a2 2 0 0 1 2 2v2M10 11v6M14 11v6"/></g></symbol><symbol id="icon-dots" viewBox="0 0 40 40"><path fill="currentColor" d="M20.042 34.917q-1.25 0-2.125-.875t-.875-2.084q0-1.208.875-2.104.875-.896 2.083-.896 1.25 0 2.104.896.854.896.854 2.104 0 1.209-.854 2.084t-2.062.875Zm0-11.959q-1.25 0-2.125-.875T17.042 20q0-1.25.875-2.104.875-.854 2.083-.854 1.25 0 2.104.854.854.854.854 2.062 0 1.25-.854 2.125t-2.062.875Zm0-11.916q-1.25 0-2.125-.875t-.875-2.125q0-1.25.875-2.125T20 5.042q1.25 0 2.104.875.854.875.854 2.125t-.854 2.125q-.854.875-2.062.875Z"/></symbol><symbol id="icon-edit" viewBox="0 0 24 24"><g fill="none" stroke="currentColor" stroke-linecap="round" stroke-linejoin="round" stroke-width="2"><path d="M11 4H4a2 2 0 0 0-2 2v14a2 2 0 0 0 2 2h14a2 2 0 0 0 2-2v-7"/><path d="M18.5 2.5a2.121 2.121 0 0 1 3 3L12 15l-4 1 1-4 9.5-9.5z"/></g></symbol><symbol id="icon-expand" viewBox="0 0 32 32"><path fill="currentColor" d="M4 18h11v6.172l-2.586-2.586L11 23l5 5 5-5-1.414-1.414L17 24.172V18h11v-2H4v2zM26 4H6a2 2 0 0 0-2 2v4a2 2 0 0 0 2 2h20a2 2 0 0 0 2-2V6a2 2 0 0 0-2-2zm0 6H6V6h20z"/></symbol><symbol id="icon-move" viewBox="0 0 16 16"><path fill="currentColor" d="M6 5a1 1 0 1 0 0-2 1 1 0 0 0 0 2Zm0 4a1 1 0 1 0 0-2 1 1 0 0 0 0 2Zm1 3a1 1 0 1 1-2 0 1 1 0 0 1 2 0Zm3-7a1 1 0 1 0 0-2 1 1 0 0 0 0 2Zm1 3a1 1 0 1 1-2 0 1 1 0 0 1 2 0Zm-1 5a1 1 0 1 0 0-2 1 1 0 0 0 0 2Z"/></symbol></svg>